<svg xmlns="http://www.w3.org/2000/svg" viewBox="0 0 1600 900" role="img" aria-labelledby="title desc">
  <title id="title">Solar System Background</title>
  <desc id="desc">Stylized stars and planetary orbits on a dark background.</desc>
  <defs>
    <linearGradient id="bg" x1="0%" y1="0%" x2="100%" y2="100%">
      <stop offset="0%" stop-color="#07101f"/>
      <stop offset="100%" stop-color="#12284b"/>
    </linearGradient>
  </defs>
  <rect width="1600" height="900" fill="url(#bg)"/>
  <circle cx="210" cy="140" r="2" fill="#ffffff" opacity="0.7"/>
  <circle cx="360" cy="220" r="3" fill="#ffffff" opacity="0.65"/>
  <circle cx="540" cy="90" r="2" fill="#ffffff" opacity="0.8"/>
  <circle cx="710" cy="180" r="2" fill="#ffffff" opacity="0.6"/>
  <circle cx="920" cy="110" r="3" fill="#ffffff" opacity="0.75"/>
  <circle cx="1110" cy="230" r="2" fill="#ffffff" opacity="0.7"/>
  <circle cx="1290" cy="120" r="2" fill="#ffffff" opacity="0.7"/>
  <circle cx="1480" cy="190" r="3" fill="#ffffff" opacity="0.75"/>
  <circle cx="1300" cy="780" r="2" fill="#ffffff" opacity="0.7"/>
  <circle cx="980" cy="740" r="3" fill="#ffffff" opacity="0.8"/>
  <circle cx="700" cy="800" r="2" fill="#ffffff" opacity="0.65"/>
  <circle cx="420" cy="720" r="2" fill="#ffffff" opacity="0.75"/>
  <circle cx="150" cy="650" r="3" fill="#ffffff" opacity="0.7"/>
  <circle cx="800" cy="450" r="64" fill="#f7b538"/>
  <ellipse cx="800" cy="450" rx="140" ry="86" fill="none" stroke="#4d6fc7" stroke-width="2" opacity="0.4"/>
  <ellipse cx="800" cy="450" rx="220" ry="140" fill="none" stroke="#4d6fc7" stroke-width="2" opacity="0.32"/>
  <ellipse cx="800" cy="450" rx="320" ry="205" fill="none" stroke="#4d6fc7" stroke-width="2" opacity="0.28"/>
  <ellipse cx="800" cy="450" rx="445" ry="285" fill="none" stroke="#4d6fc7" stroke-width="2" opacity="0.24"/>
  <circle cx="930" cy="505" r="12" fill="#c4cadb"/>
  <circle cx="585" cy="394" r="16" fill="#c7884c"/>
  <circle cx="1020" cy="360" r="18" fill="#6daee8"/>
  <circle cx="1175" cy="545" r="24" fill="#d97b55"/>
  <circle cx="418" cy="505" r="34" fill="#dfc780"/>
</svg>
